<mxfile host="app.diagrams.net" modified="2022-08-17T01:49:40.935Z" agent="5.0 (Windows NT 10.0; Win64; x64) AppleWebKit/537.36 (KHTML, like Gecko) Chrome/104.0.0.0 Safari/537.36" etag="8XpJC5isSfObPWHKoMXm" version="20.2.4" type="github">
  <diagram id="C5RBs43oDa-KdzZeNtuy" name="Page-1">
    <mxGraphModel dx="1422" dy="762" grid="1" gridSize="10" guides="1" tooltips="1" connect="1" arrows="1" fold="1" page="1" pageScale="1" pageWidth="827" pageHeight="1169" math="0" shadow="0">
      <root>
        <mxCell id="WIyWlLk6GJQsqaUBKTNV-0" />
        <mxCell id="WIyWlLk6GJQsqaUBKTNV-1" parent="WIyWlLk6GJQsqaUBKTNV-0" />
        <mxCell id="h4UxrR37htb3M9ETU_Qf-5" value="" style="edgeStyle=orthogonalEdgeStyle;rounded=0;orthogonalLoop=1;jettySize=auto;html=1;" edge="1" parent="WIyWlLk6GJQsqaUBKTNV-1" source="h4UxrR37htb3M9ETU_Qf-0" target="h4UxrR37htb3M9ETU_Qf-4">
          <mxGeometry relative="1" as="geometry" />
        </mxCell>
        <mxCell id="h4UxrR37htb3M9ETU_Qf-0" value="Actor" style="shape=umlActor;verticalLabelPosition=bottom;verticalAlign=top;html=1;outlineConnect=0;" vertex="1" parent="WIyWlLk6GJQsqaUBKTNV-1">
          <mxGeometry x="110" y="610" width="30" height="60" as="geometry" />
        </mxCell>
        <mxCell id="h4UxrR37htb3M9ETU_Qf-7" value="" style="edgeStyle=orthogonalEdgeStyle;rounded=0;orthogonalLoop=1;jettySize=auto;html=1;" edge="1" parent="WIyWlLk6GJQsqaUBKTNV-1" source="h4UxrR37htb3M9ETU_Qf-4" target="h4UxrR37htb3M9ETU_Qf-6">
          <mxGeometry relative="1" as="geometry" />
        </mxCell>
        <mxCell id="h4UxrR37htb3M9ETU_Qf-4" value="填写excel并导入" style="rounded=1;whiteSpace=wrap;html=1;fontSize=12;glass=0;strokeWidth=1;shadow=0;" vertex="1" parent="WIyWlLk6GJQsqaUBKTNV-1">
          <mxGeometry x="220" y="620" width="120" height="40" as="geometry" />
        </mxCell>
        <mxCell id="h4UxrR37htb3M9ETU_Qf-9" value="" style="edgeStyle=orthogonalEdgeStyle;rounded=0;orthogonalLoop=1;jettySize=auto;html=1;" edge="1" parent="WIyWlLk6GJQsqaUBKTNV-1" source="h4UxrR37htb3M9ETU_Qf-6" target="h4UxrR37htb3M9ETU_Qf-8">
          <mxGeometry relative="1" as="geometry" />
        </mxCell>
        <mxCell id="h4UxrR37htb3M9ETU_Qf-6" value="解析excel" style="whiteSpace=wrap;html=1;rounded=1;glass=0;strokeWidth=1;shadow=0;" vertex="1" parent="WIyWlLk6GJQsqaUBKTNV-1">
          <mxGeometry x="420" y="610" width="120" height="60" as="geometry" />
        </mxCell>
        <mxCell id="h4UxrR37htb3M9ETU_Qf-11" value="" style="edgeStyle=orthogonalEdgeStyle;rounded=0;orthogonalLoop=1;jettySize=auto;html=1;" edge="1" parent="WIyWlLk6GJQsqaUBKTNV-1" source="h4UxrR37htb3M9ETU_Qf-8" target="h4UxrR37htb3M9ETU_Qf-10">
          <mxGeometry relative="1" as="geometry" />
        </mxCell>
        <mxCell id="h4UxrR37htb3M9ETU_Qf-8" value="校验id" style="whiteSpace=wrap;html=1;rounded=1;glass=0;strokeWidth=1;shadow=0;" vertex="1" parent="WIyWlLk6GJQsqaUBKTNV-1">
          <mxGeometry x="420" y="750" width="120" height="60" as="geometry" />
        </mxCell>
        <mxCell id="h4UxrR37htb3M9ETU_Qf-18" value="yes" style="edgeStyle=orthogonalEdgeStyle;rounded=0;orthogonalLoop=1;jettySize=auto;html=1;" edge="1" parent="WIyWlLk6GJQsqaUBKTNV-1" source="h4UxrR37htb3M9ETU_Qf-10" target="h4UxrR37htb3M9ETU_Qf-17">
          <mxGeometry relative="1" as="geometry" />
        </mxCell>
        <mxCell id="h4UxrR37htb3M9ETU_Qf-22" value="" style="edgeStyle=orthogonalEdgeStyle;rounded=0;orthogonalLoop=1;jettySize=auto;html=1;entryX=0.5;entryY=0;entryDx=0;entryDy=0;" edge="1" parent="WIyWlLk6GJQsqaUBKTNV-1" source="h4UxrR37htb3M9ETU_Qf-10" target="h4UxrR37htb3M9ETU_Qf-23">
          <mxGeometry relative="1" as="geometry">
            <mxPoint x="480" y="1050" as="targetPoint" />
          </mxGeometry>
        </mxCell>
        <mxCell id="h4UxrR37htb3M9ETU_Qf-10" value="存在该id的cp或者id为空?" style="rhombus;whiteSpace=wrap;html=1;rounded=1;glass=0;strokeWidth=1;shadow=0;" vertex="1" parent="WIyWlLk6GJQsqaUBKTNV-1">
          <mxGeometry x="440" y="880" width="80" height="80" as="geometry" />
        </mxCell>
        <mxCell id="h4UxrR37htb3M9ETU_Qf-17" value="提示更改" style="whiteSpace=wrap;html=1;rounded=1;glass=0;strokeWidth=1;shadow=0;" vertex="1" parent="WIyWlLk6GJQsqaUBKTNV-1">
          <mxGeometry x="620" y="890" width="120" height="60" as="geometry" />
        </mxCell>
        <mxCell id="h4UxrR37htb3M9ETU_Qf-26" value="yes" style="edgeStyle=orthogonalEdgeStyle;rounded=0;orthogonalLoop=1;jettySize=auto;html=1;" edge="1" parent="WIyWlLk6GJQsqaUBKTNV-1" source="h4UxrR37htb3M9ETU_Qf-23" target="h4UxrR37htb3M9ETU_Qf-25">
          <mxGeometry relative="1" as="geometry" />
        </mxCell>
        <mxCell id="h4UxrR37htb3M9ETU_Qf-28" value="" style="edgeStyle=orthogonalEdgeStyle;rounded=0;orthogonalLoop=1;jettySize=auto;html=1;" edge="1" parent="WIyWlLk6GJQsqaUBKTNV-1" source="h4UxrR37htb3M9ETU_Qf-23" target="h4UxrR37htb3M9ETU_Qf-27">
          <mxGeometry relative="1" as="geometry" />
        </mxCell>
        <mxCell id="h4UxrR37htb3M9ETU_Qf-23" value="存在图片？" style="rhombus;whiteSpace=wrap;html=1;rounded=1;glass=0;strokeWidth=1;shadow=0;" vertex="1" parent="WIyWlLk6GJQsqaUBKTNV-1">
          <mxGeometry x="440" y="1010" width="80" height="80" as="geometry" />
        </mxCell>
        <mxCell id="h4UxrR37htb3M9ETU_Qf-25" value="上传到aws" style="whiteSpace=wrap;html=1;rounded=1;glass=0;strokeWidth=1;shadow=0;" vertex="1" parent="WIyWlLk6GJQsqaUBKTNV-1">
          <mxGeometry x="620" y="1020" width="120" height="60" as="geometry" />
        </mxCell>
        <mxCell id="h4UxrR37htb3M9ETU_Qf-27" value="落库" style="whiteSpace=wrap;html=1;rounded=1;glass=0;strokeWidth=1;shadow=0;" vertex="1" parent="WIyWlLk6GJQsqaUBKTNV-1">
          <mxGeometry x="420" y="1150" width="120" height="60" as="geometry" />
        </mxCell>
        <mxCell id="h4UxrR37htb3M9ETU_Qf-29" value="" style="edgeStyle=orthogonalEdgeStyle;rounded=0;orthogonalLoop=1;jettySize=auto;html=1;" edge="1" parent="WIyWlLk6GJQsqaUBKTNV-1" source="h4UxrR37htb3M9ETU_Qf-30" target="h4UxrR37htb3M9ETU_Qf-32">
          <mxGeometry relative="1" as="geometry" />
        </mxCell>
        <mxCell id="h4UxrR37htb3M9ETU_Qf-30" value="Actor" style="shape=umlActor;verticalLabelPosition=bottom;verticalAlign=top;html=1;outlineConnect=0;" vertex="1" parent="WIyWlLk6GJQsqaUBKTNV-1">
          <mxGeometry x="90" y="1570" width="30" height="60" as="geometry" />
        </mxCell>
        <mxCell id="h4UxrR37htb3M9ETU_Qf-31" value="" style="edgeStyle=orthogonalEdgeStyle;rounded=0;orthogonalLoop=1;jettySize=auto;html=1;" edge="1" parent="WIyWlLk6GJQsqaUBKTNV-1" source="h4UxrR37htb3M9ETU_Qf-32" target="h4UxrR37htb3M9ETU_Qf-34">
          <mxGeometry relative="1" as="geometry" />
        </mxCell>
        <mxCell id="h4UxrR37htb3M9ETU_Qf-32" value="填写excel并导入" style="rounded=1;whiteSpace=wrap;html=1;fontSize=12;glass=0;strokeWidth=1;shadow=0;" vertex="1" parent="WIyWlLk6GJQsqaUBKTNV-1">
          <mxGeometry x="200" y="1580" width="120" height="40" as="geometry" />
        </mxCell>
        <mxCell id="h4UxrR37htb3M9ETU_Qf-49" value="" style="edgeStyle=orthogonalEdgeStyle;rounded=0;orthogonalLoop=1;jettySize=auto;html=1;" edge="1" parent="WIyWlLk6GJQsqaUBKTNV-1" source="h4UxrR37htb3M9ETU_Qf-34" target="h4UxrR37htb3M9ETU_Qf-47">
          <mxGeometry relative="1" as="geometry" />
        </mxCell>
        <mxCell id="h4UxrR37htb3M9ETU_Qf-34" value="添加异步任务" style="whiteSpace=wrap;html=1;rounded=1;glass=0;strokeWidth=1;shadow=0;" vertex="1" parent="WIyWlLk6GJQsqaUBKTNV-1">
          <mxGeometry x="400" y="1570" width="120" height="60" as="geometry" />
        </mxCell>
        <mxCell id="h4UxrR37htb3M9ETU_Qf-35" value="" style="edgeStyle=orthogonalEdgeStyle;rounded=0;orthogonalLoop=1;jettySize=auto;html=1;" edge="1" parent="WIyWlLk6GJQsqaUBKTNV-1" source="h4UxrR37htb3M9ETU_Qf-36" target="h4UxrR37htb3M9ETU_Qf-39">
          <mxGeometry relative="1" as="geometry" />
        </mxCell>
        <mxCell id="h4UxrR37htb3M9ETU_Qf-36" value="校验（必填项）" style="whiteSpace=wrap;html=1;rounded=1;glass=0;strokeWidth=1;shadow=0;" vertex="1" parent="WIyWlLk6GJQsqaUBKTNV-1">
          <mxGeometry x="400" y="1810" width="120" height="60" as="geometry" />
        </mxCell>
        <mxCell id="h4UxrR37htb3M9ETU_Qf-38" value="" style="edgeStyle=orthogonalEdgeStyle;rounded=0;orthogonalLoop=1;jettySize=auto;html=1;entryX=0.5;entryY=0;entryDx=0;entryDy=0;" edge="1" parent="WIyWlLk6GJQsqaUBKTNV-1" source="h4UxrR37htb3M9ETU_Qf-39" target="h4UxrR37htb3M9ETU_Qf-43">
          <mxGeometry relative="1" as="geometry">
            <mxPoint x="460" y="2110" as="targetPoint" />
          </mxGeometry>
        </mxCell>
        <mxCell id="h4UxrR37htb3M9ETU_Qf-46" value="no" style="edgeStyle=orthogonalEdgeStyle;rounded=0;orthogonalLoop=1;jettySize=auto;html=1;" edge="1" parent="WIyWlLk6GJQsqaUBKTNV-1" source="h4UxrR37htb3M9ETU_Qf-39" target="h4UxrR37htb3M9ETU_Qf-40">
          <mxGeometry relative="1" as="geometry" />
        </mxCell>
        <mxCell id="h4UxrR37htb3M9ETU_Qf-39" value="校验成功？" style="rhombus;whiteSpace=wrap;html=1;rounded=1;glass=0;strokeWidth=1;shadow=0;" vertex="1" parent="WIyWlLk6GJQsqaUBKTNV-1">
          <mxGeometry x="420" y="1940" width="80" height="80" as="geometry" />
        </mxCell>
        <mxCell id="h4UxrR37htb3M9ETU_Qf-40" value="失败原因添加进任务表" style="whiteSpace=wrap;html=1;rounded=1;glass=0;strokeWidth=1;shadow=0;" vertex="1" parent="WIyWlLk6GJQsqaUBKTNV-1">
          <mxGeometry x="600" y="1950" width="120" height="60" as="geometry" />
        </mxCell>
        <mxCell id="h4UxrR37htb3M9ETU_Qf-41" value="yes" style="edgeStyle=orthogonalEdgeStyle;rounded=0;orthogonalLoop=1;jettySize=auto;html=1;" edge="1" parent="WIyWlLk6GJQsqaUBKTNV-1" source="h4UxrR37htb3M9ETU_Qf-43" target="h4UxrR37htb3M9ETU_Qf-44">
          <mxGeometry relative="1" as="geometry" />
        </mxCell>
        <mxCell id="h4UxrR37htb3M9ETU_Qf-42" value="" style="edgeStyle=orthogonalEdgeStyle;rounded=0;orthogonalLoop=1;jettySize=auto;html=1;" edge="1" parent="WIyWlLk6GJQsqaUBKTNV-1" source="h4UxrR37htb3M9ETU_Qf-43" target="h4UxrR37htb3M9ETU_Qf-45">
          <mxGeometry relative="1" as="geometry" />
        </mxCell>
        <mxCell id="h4UxrR37htb3M9ETU_Qf-43" value="存在图片？" style="rhombus;whiteSpace=wrap;html=1;rounded=1;glass=0;strokeWidth=1;shadow=0;" vertex="1" parent="WIyWlLk6GJQsqaUBKTNV-1">
          <mxGeometry x="420" y="2070" width="80" height="80" as="geometry" />
        </mxCell>
        <mxCell id="h4UxrR37htb3M9ETU_Qf-44" value="上传到aws" style="whiteSpace=wrap;html=1;rounded=1;glass=0;strokeWidth=1;shadow=0;" vertex="1" parent="WIyWlLk6GJQsqaUBKTNV-1">
          <mxGeometry x="600" y="2080" width="120" height="60" as="geometry" />
        </mxCell>
        <mxCell id="h4UxrR37htb3M9ETU_Qf-45" value="落库" style="whiteSpace=wrap;html=1;rounded=1;glass=0;strokeWidth=1;shadow=0;" vertex="1" parent="WIyWlLk6GJQsqaUBKTNV-1">
          <mxGeometry x="400" y="2210" width="120" height="60" as="geometry" />
        </mxCell>
        <mxCell id="h4UxrR37htb3M9ETU_Qf-50" value="" style="edgeStyle=orthogonalEdgeStyle;rounded=0;orthogonalLoop=1;jettySize=auto;html=1;" edge="1" parent="WIyWlLk6GJQsqaUBKTNV-1" source="h4UxrR37htb3M9ETU_Qf-47" target="h4UxrR37htb3M9ETU_Qf-36">
          <mxGeometry relative="1" as="geometry" />
        </mxCell>
        <mxCell id="h4UxrR37htb3M9ETU_Qf-47" value="解析excel" style="whiteSpace=wrap;html=1;rounded=1;glass=0;strokeWidth=1;shadow=0;" vertex="1" parent="WIyWlLk6GJQsqaUBKTNV-1">
          <mxGeometry x="400" y="1680" width="120" height="60" as="geometry" />
        </mxCell>
      </root>
    </mxGraphModel>
  </diagram>
</mxfile>
